P2
16 16
255
248 154 107 165 252 255 255 255 255 255 255 249 158 107 162 250
168 187 215 176 179 208 166 147 148 174 217 172 184 215 180 180
135 215 214 162 82 141 169 183 181 165 131 77 178 215 215 144
134 213 127 143 186 188 188 188 188 188 188 184 125 151 215 144
157 125 158 188 131 164 188 188 188 188 158 139 188 137 143 169
215 126 188 186 43 120 188 188 188 188 106 65 188 187 99 235
161 181 188 186 40 120 188 188 188 188 104 63 188 188 164 193
131 188 188 188 126 160 188 188 188 188 154 133 188 188 186 155
116 188 188 188 188 189 189 137 145 193 188 188 188 188 188 139
127 188 188 188 188 201 105 0 0 140 197 188 188 188 187 149
149 185 188 188 190 208 84 0 0 125 206 188 188 188 173 179
209 148 188 188 192 208 141 61 34 188 208 188 188 188 127 234
253 136 175 188 189 162 135 207 184 110 191 188 188 161 167 255
255 242 116 169 188 192 208 208 208 195 184 188 157 137 251 255
255 255 244 145 124 170 197 206 205 193 164 113 168 252 255 255
255 255 255 255 224 161 120 93 95 127 173 234 255 255 255 255
