P3
16 16
255
248 248 248 154 154 154 111 105 105 166 165 165 252 252 252 255 255 255 255 255 255 255 255 255 
255 255 255 255 255 255 255 255 255 249 249 249 158 158 158 111 105 105 162 162 162 250 250 250 

168 168 168 200 182 182 229 209 209 188 171 171 179 179 179 208 208 208 166 166 166 147 147 147 
148 148 148 174 174 174 217 217 217 173 172 172 196 179 179 229 209 209 192 175 175 180 180 180 

142 132 132 229 209 209 227 208 208 172 157 157 90 79 80 153 135 136 184 163 164 198 176 177 
196 174 175 180 159 160 143 126 127 84 74 74 190 173 173 229 209 209 229 209 209 148 142 142 

141 131 131 226 207 207 136 123 123 155 137 138 202 179 180 204 181 182 204 181 182 204 181 182 
204 181 182 204 181 182 204 181 182 199 177 178 136 120 121 161 147 147 229 209 209 149 142 142 

158 157 157 134 121 121 172 152 153 204 181 182 143 126 127 178 158 159 204 181 182 204 181 182 
204 181 182 204 181 182 172 152 153 151 134 134 204 181 182 149 132 132 153 139 139 169 169 169 

215 215 215 137 121 122 204 181 182 202 179 180 48 41 41 131 115 116 204 181 182 204 181 182 
204 181 182 204 181 182 116 102 102 71 62 62 204 181 182 203 180 181 108 95 96 235 235 235 

162 161 161 196 174 175 204 181 182 202 179 180 45 38 39 130 115 115 204 181 182 204 181 182 
204 181 182 204 181 182 114 100 101 70 60 61 204 181 182 204 181 182 179 158 159 193 193 193 

137 129 129 204 181 182 204 181 182 204 181 182 137 121 122 174 154 155 204 181 182 204 181 182 
204 181 182 204 181 182 168 148 149 145 128 129 204 181 182 204 181 182 202 179 180 156 154 154 

125 112 113 204 181 182 204 181 182 204 181 182 204 181 182 205 182 181 207 186 154 152 136 98 
160 144 106 211 189 163 204 181 182 204 181 182 204 181 182 204 181 182 204 181 182 142 137 137 

134 124 124 204 181 182 204 181 182 204 181 182 204 181 182 221 198 161 117 105 70 0 0 0 
0 0 0 156 140 96 216 193 168 204 181 182 204 181 182 204 181 182 203 180 181 151 148 148 

150 148 148 201 178 179 204 181 182 204 181 182 206 183 180 230 208 147 94 84 55 0 0 0 
0 0 0 139 125 85 227 205 152 204 181 182 204 181 182 204 181 182 188 167 167 179 179 179 

209 209 209 160 142 143 204 181 182 204 181 182 209 186 176 231 209 146 157 141 97 69 61 38 
39 34 19 208 188 131 230 208 147 204 181 182 204 181 182 204 181 182 137 122 122 234 234 234 

253 253 253 138 135 135 190 168 169 204 181 182 205 183 180 180 162 115 150 135 92 230 208 145 
204 185 129 123 110 74 211 190 143 204 181 182 204 181 182 175 155 156 167 167 167 255 255 255 

255 255 255 242 242 242 119 114 114 184 163 164 204 181 182 211 189 158 230 209 146 231 209 146 
231 209 146 216 195 136 201 180 163 204 181 182 171 151 152 138 136 136 251 251 251 255 255 255 

255 255 255 255 255 255 244 244 244 146 145 145 134 119 119 185 164 164 216 194 163 227 205 152 
226 204 153 211 189 166 179 158 159 122 109 110 168 168 168 252 252 252 255 255 255 255 255 255 

255 255 255 255 255 255 255 255 255 255 255 255 224 224 224 161 161 161 123 119 119 99 91 91 
101 93 93 128 126 126 173 173 173 234 234 234 255 255 255 255 255 255 255 255 255 255 255 255 

