P1
16 16
0111000000000110
1000100111001001
1000111001110001
1011000000001101
0110000000000110
0100110000110010
1000110000110001
1000110000110001
1000000000000001
1000001111000001
1000001111000001
0100000110000010
0100011001100010
0011000000001100
0000110000110000
0000001111000000
