<?xml version="1.0" encoding="UTF-8" standalone="no"?>
<!DOCTYPE svg PUBLIC "-//W3C//DTD SVG 1.1//EN"
"http://www.w3.org/Graphics/SVG/1.1/DTD/svg11.dtd">
<svg x="0" y="0" width="135" height="110" viewBox="0 0 135 110" version="1.1" xmlns="http://www.w3.org/2000/svg" xmlns:xlink="http://www.w3.org/1999/xlink"
style="display: block;margin-left: auto;margin-right: auto;">
<defs>
<clipPath id="c_1"><path d="M0,0H135V110H0Z"/></clipPath>
<clipPath id="c0"><path d="M-563.7 1303.2V-346.7H2369.6V1303.2Z"/></clipPath>

<style type="text/css"><![CDATA[
.g0{ fill: #FFF; }
.g1{ fill: #EED2D3; }
.g2{ fill: none; stroke: #000; stroke-width: 4.583; }
.g3{ fill: #D5B7B7; }
.g4{ fill: #F0D290; }
.g5{ fill: #000; }
.g6{ fill: none; stroke: #000; stroke-width: 7.638; }
.g7{ fill: none; stroke: #000; stroke-width: 3.24; }
.g8{ fill: none; stroke: #000; stroke-width: 2.336; }
]]></style>

</defs>
<path d="M0,0 L0,110 L135,110 L135,0 Z " fill="#FFFFFF" stroke="none"/>
<g clip-path="url(#c_1)">
<g clip-path="url(#c0)">
<path d="M-563.7 -346.7H2369.6V1303.2H-563.7Z" class="g0"/>
<path d="M127.2 8.3c7 7.1 7 18.5 0 25.6c-7 7 -18.3 7 -25.3 0c-7 -7.1 -7 -18.5 0 -25.6c7 -7 18.3 -7 25.3 0Z" class="g1"/>
<path d="M127.2 8.3c7 7.1 7 18.5 0 25.6c-7 7 -18.3 7 -25.3 0c-7 -7.1 -7 -18.5 0 -25.6c7 -7 18.3 -7 25.3 0Z" class="g2"/>
<path d="M33.4 8.3c7 7.1 7 18.5 0 25.6c-7 7 -18.3 7 -25.3 0c-7 -7.1 -7 -18.5 0 -25.6c7 -7 18.3 -7 25.3 0Z" class="g1"/>
<path d="M33.4 8.3c7 7.1 7 18.5 0 25.6c-7 7 -18.3 7 -25.3 0c-7 -7.1 -7 -18.5 0 -25.6c7 -7 18.3 -7 25.3 0Z" class="g2"/>
<path d="M112.7 25.5c25.1 18.7 25.1 49 0 67.6c-25.2 18.7 -65.9 18.7 -91 0c-25 -18.6 -25 -48.9 0 -67.6c25.1 -18.6 65.8 -18.6 91 0Z" class="g3"/>
<path d="M112.7 25.5c25.1 18.7 25.1 49 0 67.6c-25.2 18.7 -65.9 18.7 -91 0c-25 -18.6 -25 -48.9 0 -67.6c25.1 -18.6 65.8 -18.6 91 0Z" class="g2"/>
<path d="M85.7 62c10.2 9.3 10.2 24.2 0 33.5c-10.2 9.2 -26.8 9.2 -37 0C38.4 86.2 38.4 71.3 48.7 62c10.2 -9.2 26.8 -9.2 37 0Z" class="g4"/>
<path d="M96.3 35.7c1.1 3.2 1.1 8.3 0 11.5c-1.1 3.1 -2.8 3.1 -3.9 0C91.3 44 91.3 38.9 92.4 35.7c1.1 -3.1 2.8 -3.1 3.9 0Z" class="g5"/>
<path d="M96.3 35.7c1.1 3.2 1.1 8.3 0 11.5c-1.1 3.1 -2.8 3.1 -3.9 0C91.3 44 91.3 38.9 92.4 35.7c1.1 -3.1 2.8 -3.1 3.9 0Z" class="g6"/>
<path d="M75.1 64c4.3 3.2 4.3 8.3 0 11.4c-4.4 3.2 -11.5 3.2 -15.8 0C54.9 72.3 54.9 67.2 59.3 64c4.3 -3.2 11.4 -3.2 15.8 0Z" class="g5"/>
<path d="M75.1 64c4.3 3.2 4.3 8.3 0 11.4c-4.4 3.2 -11.5 3.2 -15.8 0C54.9 72.3 54.9 67.2 59.3 64c4.3 -3.2 11.4 -3.2 15.8 0Z" class="g6"/>
<path d="M46.7 88.7c2.5 -1.2 5 -2.6 7.3 -4.2C60.4 80 65.6 74.1 69.3 67.1" class="g7"/>
<path d="M87.3 89.9c-3.6 -1.1 -7 -2.8 -9.9 -5.2C71.1 79.7 67.3 72.2 66.9 64.1" class="g8"/>
<path d="M42.9 35.7c1.1 3.2 1.1 8.3 0 11.5c-1 3.1 -2.8 3.1 -3.9 0C38 44 38 38.9 39 35.7c1.1 -3.1 2.9 -3.1 3.9 0Z" class="g5"/>
<path d="M42.9 35.7c1.1 3.2 1.1 8.3 0 11.5c-1 3.1 -2.8 3.1 -3.9 0C38 44 38 38.9 39 35.7c1.1 -3.1 2.9 -3.1 3.9 0Z" class="g6"/>
</g>
</g>
</svg>
