<?xml version="1.0" encoding="UTF-8" standalone="no"?>
<svg
   x="0"
   y="0"
   width="135"
   height="110"
   viewBox="0 0 135 110"
   version="1.1"
   style="display:block"
   id="svg20"
   xmlns="http://www.w3.org/2000/svg"
   xmlns:svg="http://www.w3.org/2000/svg">
  <defs
     id="defs2">
    <style
       type="text/css"
       id="style2"><![CDATA[
.g0{ fill: #FFF; }
.g1{ fill: #EED2D3; }
.g2{ fill: none; stroke: #000; stroke-width: 4.583; }
.g3{ fill: #D5B7B7; }
.g4{ fill: #F0D290; }
.g5{ fill: #000; }
.g6{ fill: none; stroke: #000; stroke-width: 7.638; }
.g7{ fill: none; stroke: #000; stroke-width: 3.24; }
.g8{ fill: none; stroke: #000; stroke-width: 2.336; }
]]></style>
    <clipPath
       clipPathUnits="userSpaceOnUse"
       id="clipPath1">
      <g
         id="g2">
        <path
           d="M 0,0 H 135 V 110 H 0 Z"
           id="path2" />
      </g>
    </clipPath>
    <clipPath
       clipPathUnits="userSpaceOnUse"
       id="clipPath2">
      <g
         id="g12">
        <path
           d="M 0,0 H 135 V 110 H 0 Z"
           id="path12" />
      </g>
    </clipPath>
    <clipPath
       clipPathUnits="userSpaceOnUse"
       id="clipPath12">
      <g
         id="g13">
        <path
           d="M 0,0 H 135 V 110 H 0 Z"
           id="path13" />
      </g>
    </clipPath>
    <clipPath
       clipPathUnits="userSpaceOnUse"
       id="clipPath13">
      <g
         id="g18">
        <path
           d="M 0,0 H 135 V 110 H 0 Z"
           id="path18" />
      </g>
    </clipPath>
    <clipPath
       clipPathUnits="userSpaceOnUse"
       id="clipPath18">
      <g
         id="g19">
        <path
           d="M 0,0 H 135 V 110 H 0 Z"
           id="path19" />
      </g>
    </clipPath>
    <clipPath
       clipPathUnits="userSpaceOnUse"
       id="clipPath19">
      <g
         id="g20">
        <path
           d="M 0,0 H 135 V 110 H 0 Z"
           id="path20" />
      </g>
    </clipPath>
    <clipPath
       clipPathUnits="userSpaceOnUse"
       id="clipPath20">
      <g
         id="g38">
        <path
           d="M 0,0 H 135 V 110 H 0 Z"
           id="path37" />
      </g>
    </clipPath>
    <clipPath
       clipPathUnits="userSpaceOnUse"
       id="clipPath38">
      <g
         id="g39">
        <path
           d="M 0,0 H 135 V 110 H 0 Z"
           id="path38" />
      </g>
    </clipPath>
    <clipPath
       clipPathUnits="userSpaceOnUse"
       id="clipPath39">
      <g
         id="g40">
        <path
           d="M 0,0 H 135 V 110 H 0 Z"
           id="path40" />
      </g>
    </clipPath>
    <clipPath
       clipPathUnits="userSpaceOnUse"
       id="clipPath40">
      <g
         id="g41">
        <path
           d="M 0,0 H 135 V 110 H 0 Z"
           id="path41" />
      </g>
    </clipPath>
    <clipPath
       clipPathUnits="userSpaceOnUse"
       id="clipPath41">
      <g
         id="g42">
        <path
           d="M 0,0 H 135 V 110 H 0 Z"
           id="path42" />
      </g>
    </clipPath>
    <clipPath
       clipPathUnits="userSpaceOnUse"
       id="clipPath42">
      <g
         id="g43">
        <path
           d="M 0,0 H 135 V 110 H 0 Z"
           id="path43" />
      </g>
    </clipPath>
    <clipPath
       clipPathUnits="userSpaceOnUse"
       id="clipPath43">
      <g
         id="g44">
        <path
           d="M 0,0 H 135 V 110 H 0 Z"
           id="path44" />
      </g>
    </clipPath>
    <clipPath
       clipPathUnits="userSpaceOnUse"
       id="clipPath44">
      <g
         id="g45">
        <path
           d="M 0,0 H 135 V 110 H 0 Z"
           id="path45" />
      </g>
    </clipPath>
    <clipPath
       clipPathUnits="userSpaceOnUse"
       id="clipPath45">
      <g
         id="g46">
        <path
           d="M 0,0 H 135 V 110 H 0 Z"
           id="path46" />
      </g>
    </clipPath>
    <clipPath
       clipPathUnits="userSpaceOnUse"
       id="clipPath46">
      <g
         id="g47">
        <path
           d="M 0,0 H 135 V 110 H 0 Z"
           id="path47" />
      </g>
    </clipPath>
    <clipPath
       clipPathUnits="userSpaceOnUse"
       id="clipPath47">
      <g
         id="g48">
        <path
           d="M 0,0 H 135 V 110 H 0 Z"
           id="path48" />
      </g>
    </clipPath>
    <clipPath
       clipPathUnits="userSpaceOnUse"
       id="clipPath48">
      <g
         id="g49">
        <path
           d="M 0,0 H 135 V 110 H 0 Z"
           id="path49" />
      </g>
    </clipPath>
    <clipPath
       clipPathUnits="userSpaceOnUse"
       id="clipPath49">
      <g
         id="g50"
         transform="translate(6)">
        <path
           d="M 0,0 H 135 V 110 H 0 Z"
           id="path50" />
      </g>
    </clipPath>
  </defs>
  <path
     d="M -563.7,-346.7 H 2369.6 V 1303.2 H -563.7 Z"
     class="g0"
     id="path4"
     clip-path="url(#clipPath49)"
     style="fill:#ffffff;fill-opacity:0"
     transform="translate(-6)" />
  <path
     d="M 0,0 V 110 H 135 V 0 Z"
     fill="#ffffff"
     stroke="none"
     id="path3"
     style="display:block;fill:#ffffff;fill-opacity:0"
     clip-path="url(#clipPath48)"
     transform="translate(-2)" />
  <path
     d="m 127.2,8.3 c 7,7.1 7,18.5 0,25.6 -7,7 -18.3,7 -25.3,0 -7,-7.1 -7,-18.5 0,-25.6 7,-7 18.3,-7 25.3,0 z"
     class="g1"
     id="path5"
     clip-path="url(#clipPath47)" />
  <path
     d="m 127.2,8.3 c 7,7.1 7,18.5 0,25.6 -7,7 -18.3,7 -25.3,0 -7,-7.1 -7,-18.5 0,-25.6 7,-7 18.3,-7 25.3,0 z"
     class="g2"
     id="path6"
     clip-path="url(#clipPath46)"
     style="fill:#000000;fill-opacity:1" />
  <path
     d="m 33.4,8.3 c 7,7.1 7,18.5 0,25.6 -7,7 -18.3,7 -25.3,0 -7,-7.1 -7,-18.5 0,-25.6 7,-7 18.3,-7 25.3,0 z"
     class="g1"
     id="path7"
     clip-path="url(#clipPath45)"
     style="fill:#000000;fill-opacity:1" />
  <path
     d="m 33.4,8.3 c 7,7.1 7,18.5 0,25.6 -7,7 -18.3,7 -25.3,0 -7,-7.1 -7,-18.5 0,-25.6 7,-7 18.3,-7 25.3,0 z"
     class="g2"
     id="path8"
     clip-path="url(#clipPath44)" />
  <path
     d="m 112.7,25.5 c 25.1,18.7 25.1,49 0,67.6 -25.2,18.7 -65.9,18.7 -91,0 -25,-18.6 -25,-48.9 0,-67.6 25.1,-18.6 65.8,-18.6 91,0 z"
     class="g3"
     id="path9"
     clip-path="url(#clipPath43)" />
  <path
     d="m 112.7,25.5 c 25.1,18.7 25.1,49 0,67.6 -25.2,18.7 -65.9,18.7 -91,0 -25,-18.6 -25,-48.9 0,-67.6 25.1,-18.6 65.8,-18.6 91,0 z"
     class="g2"
     id="path10"
     clip-path="url(#clipPath42)"
     style="fill:#ffffff;fill-opacity:1" />
  <path
     d="m 85.7,62 c 10.2,9.3 10.2,24.2 0,33.5 -10.2,9.2 -26.8,9.2 -37,0 -10.3,-9.3 -10.3,-24.2 0,-33.5 10.2,-9.2 26.8,-9.2 37,0 z"
     class="g4"
     id="path11"
     clip-path="url(#clipPath41)"
     style="fill:#eff0df;fill-opacity:1" />
  <path
     d="m 75.1,64 c 4.3,3.2 4.3,8.3 0,11.4 -4.4,3.2 -11.5,3.2 -15.8,0 -4.4,-3.1 -4.4,-8.2 0,-11.4 4.3,-3.2 11.4,-3.2 15.8,0 z"
     class="g5"
     id="path14"
     clip-path="url(#clipPath40)" />
  <path
     d="m 75.1,64 c 4.3,3.2 4.3,8.3 0,11.4 -4.4,3.2 -11.5,3.2 -15.8,0 -4.4,-3.1 -4.4,-8.2 0,-11.4 4.3,-3.2 11.4,-3.2 15.8,0 z"
     class="g6"
     id="path15"
     clip-path="url(#clipPath39)" />
  <path
     d="m 46.7,88.7 c 2.5,-1.2 5,-2.6 7.3,-4.2 C 60.4,80 65.6,74.1 69.3,67.1"
     class="g7"
     id="path16"
     clip-path="url(#clipPath38)" />
  <path
     d="M 87.3,89.9 C 83.7,88.8 80.3,87.1 77.4,84.7 71.1,79.7 67.3,72.2 66.9,64.1"
     class="g8"
     id="path17"
     clip-path="url(#clipPath20)" />
  <ellipse
     style="fill:#000000;fill-opacity:1;fill-rule:evenodd"
     id="path39"
     cx="41.022602"
     cy="41.896076"
     rx="17.67767"
     ry="14.318913"
     clip-path="url(#clipPath19)" />
  <ellipse
     style="fill:#000000;fill-opacity:1;fill-rule:evenodd"
     id="ellipse40"
     cx="93.022598"
     cy="41.896076"
     rx="17.67767"
     ry="14.318913"
     clip-path="url(#clipPath18)" />
  <ellipse
     style="fill:#ffffff;fill-opacity:1;fill-rule:evenodd;stroke-width:0.347833"
     id="ellipse41"
     cx="89.532112"
     cy="42.526913"
     rx="6.1871843"
     ry="4.9497485"
     clip-path="url(#clipPath13)" />
  <ellipse
     style="fill:#000000;fill-opacity:1;fill-rule:evenodd;stroke-width:0.161016"
     id="ellipse42"
     cx="87.996582"
     cy="42.679455"
     rx="2.6516504"
     ry="2.4748747"
     clip-path="url(#clipPath12)" />
  <ellipse
     style="fill:#ffffff;fill-opacity:1;fill-rule:evenodd;stroke-width:0.347833"
     id="ellipse44"
     cx="45.532112"
     cy="42.526913"
     rx="6.1871843"
     ry="4.9497485"
     clip-path="url(#clipPath2)" />
  <ellipse
     style="fill:#000000;fill-opacity:1;fill-rule:evenodd;stroke-width:0.161016"
     id="ellipse43"
     cx="47.996582"
     cy="42.679455"
     rx="2.6516504"
     ry="2.4748747"
     clip-path="url(#clipPath1)" />
</svg>
